<?xml version="1.0" standalone="no"?>
<!DOCTYPE svg PUBLIC "-//W3C//DTD SVG 20010904//EN"
 "http://www.w3.org/TR/2001/REC-SVG-20010904/DTD/svg10.dtd">
<svg version="1.0" xmlns="http://www.w3.org/2000/svg"
 width="512.000000pt" height="512.000000pt" viewBox="0 0 512.000000 512.000000"
 preserveAspectRatio="xMidYMid meet">
<metadata>
Created by potrace 1.14, written by Peter Selinger 2001-2017
</metadata>
<g transform="translate(0.000000,512.000000) scale(0.100000,-0.100000)"
fill="#000000" stroke="none">
<path d="M1651 5107 c-96 -36 -161 -138 -161 -252 l0 -65 -63 0 c-72 0 -159
-20 -219 -51 -89 -45 -181 -165 -204 -264 -4 -16 -8 -453 -9 -970 -2 -517 -3
-943 -4 -946 -1 -4 -49 40 -107 98 -119 116 -144 132 -219 140 -101 11 -136
-10 -306 -179 -165 -164 -192 -204 -192 -293 0 -96 10 -109 432 -531 l395
-394 1 -538 c2 -584 1 -566 60 -668 37 -62 124 -135 197 -164 l63 -25 1336 0
c1447 0 1344 -4 1375 50 9 16 21 19 60 19 92 -3 93 -3 100 -28 10 -42 46 -48
261 -44 l198 3 68 32 c121 58 213 174 234 298 4 28 8 646 7 1374 l0 1324 -23
18 c-13 11 -29 19 -37 19 -11 0 -14 18 -14 75 0 69 2 76 23 84 52 20 51 1 51
604 1 309 -3 587 -7 617 -11 77 -52 156 -112 216 -83 83 -169 119 -300 123
-38 1 -71 4 -73 6 -2 2 -5 37 -7 78 -4 89 -27 140 -84 189 -50 43 -95 57 -169
54 -67 -3 -109 -23 -161 -76 -44 -45 -62 -100 -65 -189 l-1 -61 -172 0 -173 0
-1 58 c-1 71 -2 79 -27 133 -40 90 -125 140 -228 135 -67 -4 -108 -22 -154
-69 -50 -50 -63 -85 -68 -174 l-5 -83 -173 0 -174 0 0 63 c0 82 -22 144 -66
190 -46 47 -84 65 -151 72 -80 9 -142 -15 -196 -75 -50 -56 -67 -103 -67 -189
l0 -61 -174 0 -173 0 -2 72 c-4 152 -89 246 -231 254 -30 2 -70 -2 -89 -9z"/>
</g>
</svg>
